<mxfile host="app.diagrams.net" agent="Mozilla/5.0 (Windows NT 10.0; Win64; x64) AppleWebKit/537.36 (KHTML, like Gecko) Chrome/129.0.0.0 Safari/537.36" version="24.7.17">
  <diagram name="Page-1" id="0783ab3e-0a74-02c8-0abd-f7b4e66b4bec">
    <mxGraphModel dx="500" dy="652" grid="1" gridSize="10" guides="1" tooltips="1" connect="1" arrows="1" fold="1" page="0" pageScale="1" pageWidth="850" pageHeight="1100" background="none" math="0" shadow="0">
      <root>
        <mxCell id="0" />
        <mxCell id="1" parent="0" />
        <mxCell id="s2xhI_wcjBOfC_guacyl-30" style="edgeStyle=orthogonalEdgeStyle;rounded=0;orthogonalLoop=1;jettySize=auto;html=1;exitX=0.5;exitY=1;exitDx=0;exitDy=0;" edge="1" parent="1" source="s2xhI_wcjBOfC_guacyl-1" target="s2xhI_wcjBOfC_guacyl-3">
          <mxGeometry relative="1" as="geometry" />
        </mxCell>
        <mxCell id="s2xhI_wcjBOfC_guacyl-1" value="고객등록" style="ellipse;whiteSpace=wrap;html=1;" vertex="1" parent="1">
          <mxGeometry x="400" y="-10" width="140" height="70" as="geometry" />
        </mxCell>
        <mxCell id="s2xhI_wcjBOfC_guacyl-2" value="사용자관리" style="ellipse;whiteSpace=wrap;html=1;" vertex="1" parent="1">
          <mxGeometry x="400" y="210" width="140" height="70" as="geometry" />
        </mxCell>
        <mxCell id="s2xhI_wcjBOfC_guacyl-3" value="기본정보 세팅" style="ellipse;whiteSpace=wrap;html=1;" vertex="1" parent="1">
          <mxGeometry x="400" y="100" width="140" height="70" as="geometry" />
        </mxCell>
        <mxCell id="s2xhI_wcjBOfC_guacyl-4" value="작업구역관리" style="ellipse;whiteSpace=wrap;html=1;" vertex="1" parent="1">
          <mxGeometry x="400" y="320" width="140" height="70" as="geometry" />
        </mxCell>
        <mxCell id="s2xhI_wcjBOfC_guacyl-5" value="공정관리" style="ellipse;whiteSpace=wrap;html=1;" vertex="1" parent="1">
          <mxGeometry x="630" y="430" width="140" height="70" as="geometry" />
        </mxCell>
        <mxCell id="s2xhI_wcjBOfC_guacyl-6" value="작업유형관리" style="ellipse;whiteSpace=wrap;html=1;" vertex="1" parent="1">
          <mxGeometry x="410" y="430" width="140" height="70" as="geometry" />
        </mxCell>
        <mxCell id="s2xhI_wcjBOfC_guacyl-7" value="기계 및 기구관리" style="ellipse;whiteSpace=wrap;html=1;" vertex="1" parent="1">
          <mxGeometry x="410" y="530" width="140" height="70" as="geometry" />
        </mxCell>
        <mxCell id="s2xhI_wcjBOfC_guacyl-8" value="작업(공사)관리" style="ellipse;whiteSpace=wrap;html=1;" vertex="1" parent="1">
          <mxGeometry x="200" y="420" width="140" height="70" as="geometry" />
        </mxCell>
        <mxCell id="s2xhI_wcjBOfC_guacyl-9" value="작업계획서관리" style="ellipse;whiteSpace=wrap;html=1;" vertex="1" parent="1">
          <mxGeometry x="200" y="630" width="140" height="70" as="geometry" />
        </mxCell>
        <mxCell id="s2xhI_wcjBOfC_guacyl-10" value="작업허가서관리" style="ellipse;whiteSpace=wrap;html=1;" vertex="1" parent="1">
          <mxGeometry x="200" y="730" width="140" height="70" as="geometry" />
        </mxCell>
        <mxCell id="s2xhI_wcjBOfC_guacyl-11" value="출역관리" style="ellipse;whiteSpace=wrap;html=1;" vertex="1" parent="1">
          <mxGeometry x="200" y="510" width="140" height="70" as="geometry" />
        </mxCell>
        <mxCell id="s2xhI_wcjBOfC_guacyl-12" value="근무인원관리" style="ellipse;whiteSpace=wrap;html=1;" vertex="1" parent="1">
          <mxGeometry x="630" y="530" width="140" height="70" as="geometry" />
        </mxCell>
        <mxCell id="s2xhI_wcjBOfC_guacyl-13" value="위험성평가" style="ellipse;whiteSpace=wrap;html=1;" vertex="1" parent="1">
          <mxGeometry x="630" y="240" width="140" height="70" as="geometry" />
        </mxCell>
        <mxCell id="s2xhI_wcjBOfC_guacyl-14" value="위해화학물질관리" style="ellipse;whiteSpace=wrap;html=1;" vertex="1" parent="1">
          <mxGeometry x="840" y="240" width="140" height="70" as="geometry" />
        </mxCell>
        <mxCell id="s2xhI_wcjBOfC_guacyl-15" value="위험성평가" style="ellipse;whiteSpace=wrap;html=1;" vertex="1" parent="1">
          <mxGeometry x="830" y="670" width="140" height="70" as="geometry" />
        </mxCell>
        <mxCell id="s2xhI_wcjBOfC_guacyl-16" value="시스템관리자" style="shape=umlActor;verticalLabelPosition=bottom;verticalAlign=top;html=1;" vertex="1" parent="1">
          <mxGeometry x="200" y="-10" width="30" height="60" as="geometry" />
        </mxCell>
        <mxCell id="s2xhI_wcjBOfC_guacyl-17" value="고객" style="shape=umlActor;verticalLabelPosition=bottom;verticalAlign=top;html=1;" vertex="1" parent="1">
          <mxGeometry x="640" width="30" height="60" as="geometry" />
        </mxCell>
        <mxCell id="s2xhI_wcjBOfC_guacyl-18" value="공통서비스" style="shape=umlActor;verticalLabelPosition=bottom;verticalAlign=top;html=1;" vertex="1" parent="1">
          <mxGeometry x="380" y="-130" width="30" height="60" as="geometry" />
        </mxCell>
        <mxCell id="s2xhI_wcjBOfC_guacyl-21" value="" style="endArrow=block;startArrow=block;endFill=1;startFill=1;html=1;rounded=0;entryX=0.433;entryY=0.013;entryDx=0;entryDy=0;entryPerimeter=0;edgeStyle=orthogonalEdgeStyle;" edge="1" parent="1" source="s2xhI_wcjBOfC_guacyl-18" target="s2xhI_wcjBOfC_guacyl-1">
          <mxGeometry width="160" relative="1" as="geometry">
            <mxPoint x="280" y="50" as="sourcePoint" />
            <mxPoint x="440" y="50" as="targetPoint" />
          </mxGeometry>
        </mxCell>
        <mxCell id="s2xhI_wcjBOfC_guacyl-22" value="" style="endArrow=block;startArrow=block;endFill=1;startFill=1;html=1;rounded=0;edgeStyle=orthogonalEdgeStyle;exitX=0;exitY=0.3333333333333333;exitDx=0;exitDy=0;exitPerimeter=0;" edge="1" parent="1" source="s2xhI_wcjBOfC_guacyl-17" target="s2xhI_wcjBOfC_guacyl-1">
          <mxGeometry width="160" relative="1" as="geometry">
            <mxPoint x="405" y="-60" as="sourcePoint" />
            <mxPoint x="471" y="1" as="targetPoint" />
          </mxGeometry>
        </mxCell>
        <mxCell id="s2xhI_wcjBOfC_guacyl-23" value="" style="endArrow=block;startArrow=block;endFill=1;startFill=1;html=1;rounded=0;edgeStyle=orthogonalEdgeStyle;" edge="1" parent="1" source="s2xhI_wcjBOfC_guacyl-1" target="s2xhI_wcjBOfC_guacyl-16">
          <mxGeometry width="160" relative="1" as="geometry">
            <mxPoint x="630" y="-10" as="sourcePoint" />
            <mxPoint x="550" y="35" as="targetPoint" />
          </mxGeometry>
        </mxCell>
        <mxCell id="s2xhI_wcjBOfC_guacyl-31" style="edgeStyle=orthogonalEdgeStyle;rounded=0;orthogonalLoop=1;jettySize=auto;html=1;exitX=0.5;exitY=0.5;exitDx=0;exitDy=0;exitPerimeter=0;entryX=1;entryY=0.5;entryDx=0;entryDy=0;" edge="1" parent="1" source="s2xhI_wcjBOfC_guacyl-24" target="s2xhI_wcjBOfC_guacyl-3">
          <mxGeometry relative="1" as="geometry" />
        </mxCell>
        <mxCell id="s2xhI_wcjBOfC_guacyl-24" value="테넌트관리자" style="shape=umlActor;verticalLabelPosition=bottom;verticalAlign=top;html=1;" vertex="1" parent="1">
          <mxGeometry x="640" y="110" width="30" height="60" as="geometry" />
        </mxCell>
        <mxCell id="s2xhI_wcjBOfC_guacyl-29" value="" style="endArrow=block;endSize=16;endFill=0;html=1;rounded=0;exitX=0.481;exitY=0.05;exitDx=0;exitDy=0;exitPerimeter=0;edgeStyle=orthogonalEdgeStyle;entryX=1;entryY=0.3333333333333333;entryDx=0;entryDy=0;entryPerimeter=0;" edge="1" parent="1" source="s2xhI_wcjBOfC_guacyl-24" target="s2xhI_wcjBOfC_guacyl-17">
          <mxGeometry width="160" relative="1" as="geometry">
            <mxPoint x="570" y="100" as="sourcePoint" />
            <mxPoint x="670" y="60" as="targetPoint" />
            <Array as="points">
              <mxPoint x="654" y="85" />
              <mxPoint x="700" y="85" />
              <mxPoint x="700" y="20" />
            </Array>
          </mxGeometry>
        </mxCell>
        <mxCell id="s2xhI_wcjBOfC_guacyl-32" style="edgeStyle=orthogonalEdgeStyle;rounded=0;orthogonalLoop=1;jettySize=auto;html=1;entryX=-0.001;entryY=0.582;entryDx=0;entryDy=0;entryPerimeter=0;" edge="1" parent="1" source="s2xhI_wcjBOfC_guacyl-16" target="s2xhI_wcjBOfC_guacyl-3">
          <mxGeometry relative="1" as="geometry">
            <Array as="points">
              <mxPoint x="215" y="60" />
              <mxPoint x="280" y="60" />
              <mxPoint x="280" y="141" />
            </Array>
          </mxGeometry>
        </mxCell>
      </root>
    </mxGraphModel>
  </diagram>
</mxfile>
